<svg xmlns="http://www.w3.org/2000/svg" width="659.644" height="628.748" viewBox="0 0 659.644 628.748"><defs><style>.a{opacity:0.307;}.b{fill:#387dff;}</style></defs><g class="a" transform="translate(5013.63 -2371.295) rotate(113)"><path class="b" d="M-2.114,290.69a56.5,56.5,0,0,0,23.375,20.074c11.635,5.587,25.3,8,39.373,7.622,3.168-.095,6.337-.284,9.506-.663A111.451,111.451,0,0,0,119.8,299.685c41.97-28.691,37.5-46.98,101.911-58.2,25.815-4.5,84.87,5.767,105.349-39.98S304.642,121.2,315.365,78.456s41.307-23,54.582-47.918S329.086-38.5,257.218-19.9,228.57,99.123,175.691,134.533-37.617,203.372-2.166,290.608-2.132,290.663-2.114,290.69Z" transform="translate(4100.046 3017.052)"/><path class="b" d="M174.867-169.374c-20.448,24.07,25.273,77.328,15.14,119.239S139.572,4.833,75.163,16.054C37.2,23.9,14.582,32.762-23.638,68.034S-99.279,89.6-146.812,89.136s-88.834,58.833-40.354,106.266S-83.3,243.721-11.43,225.114,29.736,150.869,82.616,115.46,330.658,100.612,293.562-22.386,214.249-201.137,174.867-169.374Z" transform="translate(4273.219 3269.751)"/></g></svg>