<svg xmlns="http://www.w3.org/2000/svg" width="576.866" height="581.798" viewBox="0 0 576.866 581.798"><defs><style>.a{opacity:0.307;}.b{fill:#387dff;}</style></defs><g class="a" transform="translate(79.099) rotate(11)"><path class="b" d="M5.117,38.7A56.5,56.5,0,0,1,28.491,18.631c11.635-5.587,25.3-8,39.373-7.622,3.168.095,6.337.284,9.506.663a111.451,111.451,0,0,1,49.658,18.038c41.97,28.691,37.5,46.98,101.911,58.2,25.815,4.5,84.87-5.767,105.349,39.98S311.873,208.2,322.6,250.939s41.307,23,54.582,47.918S336.317,367.9,264.449,349.291,235.8,230.271,182.922,194.862-30.387,126.023,5.065,38.787,5.1,38.732,5.117,38.7Z" transform="translate(28.462 159.702)"/><path class="b" d="M383.733,405.771c-20.448-24.07,25.273-77.328,15.14-119.239s-50.434-54.968-114.844-66.189c-37.959-7.847-60.581-16.708-98.8-51.98s-75.641-21.563-123.174-21.1S-26.78,88.429,21.7,41,125.568-7.324,197.436,11.283,238.6,85.528,291.482,120.937s248.043,14.848,210.946,137.846S423.115,437.535,383.733,405.771Z" transform="translate(0 0)"/></g></svg>