<svg xmlns="http://www.w3.org/2000/svg" xmlns:xlink="http://www.w3.org/1999/xlink" width="135" height="163" viewBox="0 0 135 163">
  <defs>
    <filter id="Path_9660" x="-3.774" y="-15.73" width="142.839" height="184.897" filterUnits="userSpaceOnUse">
      <feOffset dy="2" input="SourceAlpha"/>
      <feGaussianBlur stdDeviation="6" result="blur"/>
      <feFlood flood-color="#6290f8" flood-opacity="0.4"/>
      <feComposite operator="in" in2="blur"/>
      <feComposite in="SourceGraphic"/>
    </filter>
    <linearGradient id="linear-gradient" x1="0.5" x2="0.5" y2="1" gradientUnits="objectBoundingBox">
      <stop offset="0" stop-color="#eef5ff"/>
      <stop offset="1" stop-color="#cfe1ff"/>
    </linearGradient>
    <linearGradient id="linear-gradient-2" x1="0.5" x2="0.5" y2="1" gradientUnits="objectBoundingBox">
      <stop offset="0" stop-color="#e89e01"/>
      <stop offset="1" stop-color="#f47c6a"/>
    </linearGradient>
    <filter id="Path_9664" x="-3" y="69.55" width="140.98" height="51.442" filterUnits="userSpaceOnUse">
      <feOffset dy="3" input="SourceAlpha"/>
      <feGaussianBlur stdDeviation="3" result="blur-2"/>
      <feFlood flood-color="#2352e0" flood-opacity="0.149"/>
      <feComposite operator="in" in2="blur-2"/>
      <feComposite in="SourceGraphic"/>
    </filter>
    <filter id="Path_9666" x="41.229" y="-0.571" width="53.436" height="52.519" filterUnits="userSpaceOnUse">
      <feOffset dy="3" input="SourceAlpha"/>
      <feGaussianBlur stdDeviation="3" result="blur-3"/>
      <feFlood flood-color="#2352e0" flood-opacity="0.149"/>
      <feComposite operator="in" in2="blur-3"/>
      <feComposite in="SourceGraphic"/>
    </filter>
    <clipPath id="clip-Artboard_5">
      <rect width="135" height="163"/>
    </clipPath>
  </defs>
  <g id="Artboard_5" data-name="Artboard – 5" clip-path="url(#clip-Artboard_5)">
    <g id="Group_9399" data-name="Group 9399" transform="translate(-4163.928 -163.394)">
      <g id="Group_8372" data-name="Group 8372" transform="translate(4169.928 163.394)">
        <g id="Group_9388" data-name="Group 9388" transform="translate(0 0)">
          <path id="Path_9658" data-name="Path 9658" d="M2629.482-4203.513,2621-4197v-12.922Z" transform="translate(-2506.592 4312.422)" fill="#ad3131"/>
          <path id="Path_9659" data-name="Path 9659" d="M2621-4203.513l8.483,6.517v-12.922Z" transform="translate(-2620.45 4312.422)" fill="#ad3131"/>
          <g id="Group_9383" data-name="Group 9383" transform="translate(7.956 0)">
            <g transform="matrix(1, 0, 0, 1, -13.96, 0)" filter="url(#Path_9660)">
              <path id="Path_9660-2" data-name="Path 9660" d="M53.676,149.147a6.254,6.254,0,0,1-3.145-.9l0,0-.005,0L.25,122V.25H107.089V122L56.818,148.246l-.005,0-.005,0A6.231,6.231,0,0,1,53.676,149.147Z" transform="translate(13.98 0.02)" fill="#fff"/>
            </g>
            <path id="Path_9661" data-name="Path 9661" d="M53.7,148.9a5.965,5.965,0,0,0,3-.859l.02-.011,50.126-26.17V.539H.539V121.857l50.126,26.17.02.011a5.988,5.988,0,0,0,3.01.859m0,.539a6.568,6.568,0,0,1-3.28-.931L0,122.184V0H107.378V122.184L56.963,148.5A6.462,6.462,0,0,1,53.7,149.436Z" transform="translate(0 0)" fill="#fff"/>
          </g>
          <path id="Path_9662" data-name="Path 9662" d="M45.212,135.63,0,112.561V3.236A3.236,3.236,0,0,1,3.236,0H93.061A3.236,3.236,0,0,1,96.3,3.236V112.561L51.084,135.63a5.825,5.825,0,0,1-2.93.83A5.922,5.922,0,0,1,45.212,135.63Z" transform="translate(14.024 5.554)" fill="url(#linear-gradient)"/>
          <path id="Path_9663" data-name="Path 9663" d="M-27.64-7.521h-3.8V-9.764h10.356v2.243h-3.8V2.123h-2.751Zm13.618,9.848a6.938,6.938,0,0,1-3.337-.8,5.924,5.924,0,0,1-2.327-2.2,6,6,0,0,1-.84-3.15,6,6,0,0,1,.84-3.15,5.924,5.924,0,0,1,2.326-2.2,6.938,6.938,0,0,1,3.337-.8,6.888,6.888,0,0,1,3.328.8,6,6,0,0,1,2.327,2.2,5.957,5.957,0,0,1,.849,3.15,5.957,5.957,0,0,1-.849,3.15,6,6,0,0,1-2.327,2.2,6.888,6.888,0,0,1-3.328.8Zm0-2.343A3.776,3.776,0,0,0-12.12-.5a3.473,3.473,0,0,0,1.328-1.351,3.969,3.969,0,0,0,.484-1.97A3.969,3.969,0,0,0-10.792-5.8a3.473,3.473,0,0,0-1.333-1.35,3.776,3.776,0,0,0-1.9-.484,3.776,3.776,0,0,0-1.9.484A3.473,3.473,0,0,0-17.257-5.8a3.968,3.968,0,0,0-.484,1.97,3.968,3.968,0,0,0,.484,1.97,3.473,3.473,0,0,0,1.333,1.35,3.776,3.776,0,0,0,1.9.489ZM-.3-9.764a6.6,6.6,0,0,1,2.742.526A4.075,4.075,0,0,1,4.231-7.743a4.117,4.117,0,0,1,.628,2.292,4.127,4.127,0,0,1-.628,2.284A4,4,0,0,1,2.44-1.673,6.7,6.7,0,0,1-.3-1.155H-2.7V2.122H-5.452V-9.764ZM-.456-3.4a2.889,2.889,0,0,0,1.885-.539,1.863,1.863,0,0,0,.647-1.52,1.882,1.882,0,0,0-.647-1.536A2.889,2.889,0,0,0-.456-7.534H-2.7v4.126Zm16.08-6.365V2.122h-2.75V-7.557H10.5V-9.764ZM22.79,2.326a4.819,4.819,0,0,1-2.632-.73A4.9,4.9,0,0,1,18.35-.519a7.673,7.673,0,0,1-.654-3.3,7.673,7.673,0,0,1,.654-3.3,4.9,4.9,0,0,1,1.808-2.114,4.819,4.819,0,0,1,2.632-.73,4.819,4.819,0,0,1,2.632.73A4.9,4.9,0,0,1,27.23-7.123a7.673,7.673,0,0,1,.654,3.3,7.673,7.673,0,0,1-.654,3.3A4.9,4.9,0,0,1,25.422,1.6,4.819,4.819,0,0,1,22.79,2.326ZM22.79,0A1.942,1.942,0,0,0,24.5-.934a5.309,5.309,0,0,0,.62-2.887,5.309,5.309,0,0,0-.62-2.887,1.942,1.942,0,0,0-1.707-.934,1.929,1.929,0,0,0-1.689.934,5.309,5.309,0,0,0-.62,2.887A5.309,5.309,0,0,0,21.1-.934,1.929,1.929,0,0,0,22.79,0ZM34.32,2.326a4.819,4.819,0,0,1-2.632-.73,4.9,4.9,0,0,1-1.81-2.114,7.673,7.673,0,0,1-.647-3.3,7.673,7.673,0,0,1,.647-3.3,4.9,4.9,0,0,1,1.808-2.114,4.819,4.819,0,0,1,2.632-.73,4.819,4.819,0,0,1,2.632.73,4.9,4.9,0,0,1,1.808,2.114,7.673,7.673,0,0,1,.656,3.3,7.673,7.673,0,0,1-.654,3.3A4.9,4.9,0,0,1,36.951,1.6a4.819,4.819,0,0,1-2.631.73ZM34.32,0a1.942,1.942,0,0,0,1.707-.934,5.309,5.309,0,0,0,.62-2.887,5.309,5.309,0,0,0-.62-2.887,1.942,1.942,0,0,0-1.707-.934,1.929,1.929,0,0,0-1.689.934,5.309,5.309,0,0,0-.62,2.887,5.309,5.309,0,0,0,.62,2.887A1.929,1.929,0,0,0,34.32,0Z" transform="translate(57.106 68.092)" fill="#252e48"/>
          <g transform="matrix(1, 0, 0, 1, -6, 0)" filter="url(#Path_9664)">
            <path id="Path_9664-2" data-name="Path 9664" d="M2.158,0H120.822a2.158,2.158,0,0,1,2.158,2.158V33.442H0V2.158A2.158,2.158,0,0,1,2.158,0Z" transform="translate(6 75.55)" fill="url(#linear-gradient-2)"/>
          </g>
          <path id="Path_9665" data-name="Path 9665" d="M-5.423-.9V.516H-11.1V-.61l2.9-2.735A3.074,3.074,0,0,0-7.578-4.1a1.375,1.375,0,0,0,.16-.625.83.83,0,0,0-.311-.695,1.422,1.422,0,0,0-.9-.242,2.056,2.056,0,0,0-.89.188,1.7,1.7,0,0,0-.665.563l-1.265-.814a2.969,2.969,0,0,1,1.211-1.024,4.046,4.046,0,0,1,1.769-.37A3.638,3.638,0,0,1-7-6.846a2.256,2.256,0,0,1,.971.772A2,2,0,0,1-5.68-4.9a2.617,2.617,0,0,1-.248,1.146,4.416,4.416,0,0,1-1,1.222L-8.651-.9ZM-1.51.644A3.043,3.043,0,0,1-3.172.183,3.094,3.094,0,0,1-4.314-1.152a4.846,4.846,0,0,1-.413-2.085,4.846,4.846,0,0,1,.413-2.085A3.094,3.094,0,0,1-3.172-6.659,3.043,3.043,0,0,1-1.51-7.12a3.043,3.043,0,0,1,1.662.461A3.094,3.094,0,0,1,1.294-5.323a4.846,4.846,0,0,1,.413,2.085,4.846,4.846,0,0,1-.413,2.086A3.094,3.094,0,0,1,.153.183,3.043,3.043,0,0,1-1.51.644Zm0-1.469a1.228,1.228,0,0,0,1.079-.59A3.353,3.353,0,0,0-.039-3.238,3.353,3.353,0,0,0-.431-5.061a1.228,1.228,0,0,0-1.079-.59,1.218,1.218,0,0,0-1.067.59,3.353,3.353,0,0,0-.392,1.823,3.353,3.353,0,0,0,.392,1.823,1.218,1.218,0,0,0,1.067.59ZM5.385-6.99V.516H3.648V-5.6h-1.5V-6.99ZM9.331-7.12a3.2,3.2,0,0,1,2.466.96,3.916,3.916,0,0,1,.89,2.762A4.661,4.661,0,0,1,12.21-1.21,3.245,3.245,0,0,1,10.865.172,4.135,4.135,0,0,1,8.86.644,4.8,4.8,0,0,1,7.712.511,3.089,3.089,0,0,1,6.78.13l.647-1.276a2.432,2.432,0,0,0,1.4.375,2.032,2.032,0,0,0,1.51-.563,2.355,2.355,0,0,0,.6-1.625,2.521,2.521,0,0,1-1.866.675,2.929,2.929,0,0,1-1.309-.289,2.286,2.286,0,0,1-.933-.82A2.211,2.211,0,0,1,6.49-4.617a2.339,2.339,0,0,1,.375-1.319A2.449,2.449,0,0,1,7.889-6.81,3.344,3.344,0,0,1,9.331-7.12Zm.128,3.538a1.352,1.352,0,0,0,.928-.316,1.03,1.03,0,0,0,.359-.809,1.028,1.028,0,0,0-.352-.8,1.391,1.391,0,0,0-.96-.311,1.339,1.339,0,0,0-.906.3,1.021,1.021,0,0,0-.348.814,1.037,1.037,0,0,0,.348.82,1.356,1.356,0,0,0,.932.306Z" transform="translate(61.513 122.227)" fill="#252d48"/>
          <g id="Group_9384" data-name="Group 9384" transform="translate(34.521 119.615)">
            <line id="Line_148" data-name="Line 148" x2="8.068" transform="translate(47.466)" fill="none" stroke="#252d48" stroke-width="1"/>
            <line id="Line_149" data-name="Line 149" x2="8.068" transform="translate(0)" fill="none" stroke="#252d48" stroke-width="1"/>
          </g>
          <g transform="matrix(1, 0, 0, 1, -6, 0)" filter="url(#Path_9666)">
            <path id="Path_9666-2" data-name="Path 9666" d="M16.592,34.322,0,25.926l.085-.055V0h35.35V25.966H35.26L18.746,34.322a3.081,3.081,0,0,1-1.079.2,3.113,3.113,0,0,1-1.076-.2Z" transform="translate(50.23 5.43)" fill="url(#linear-gradient-2)"/>
          </g>
          <g id="Group_9386" data-name="Group 9386" transform="translate(52.856 14.058)">
            <g id="Group_9385" data-name="Group 9385" transform="translate(0 0)">
              <path id="Path_9667" data-name="Path 9667" d="M287.6,124.824a9.239,9.239,0,0,1-5.437-1.762,8.476,8.476,0,0,1-3.221-4.584,9.753,9.753,0,0,1-.324-1.545,8.232,8.232,0,0,1-.059-1.341,8.016,8.016,0,0,1,1.121-3.793,9.493,9.493,0,0,1,2.27-2.66,8.638,8.638,0,0,1,3.062-1.549,9.55,9.55,0,0,1,1.618-.315,8.108,8.108,0,0,1,1.5-.028c.346.028.691.082,1.037.127.108.014.124.044.076.146l-1.637,3.36a.192.192,0,0,1-.186.115,5.11,5.11,0,0,0-3.312,1.3,4.923,4.923,0,0,0-1.592,2.744,4.686,4.686,0,0,0-.081,1.393,4.938,4.938,0,0,0,1.547,3.212,5.013,5.013,0,0,0,2.082,1.187,5.323,5.323,0,0,0,1.78.231,4.838,4.838,0,0,0,1.8-.442,6.1,6.1,0,0,0,1.118-.669l.078-.055a.067.067,0,0,1,.108.019c.014.021.027.04.039.061l1.776,3.014c.078.132.073.152-.055.239a9.027,9.027,0,0,1-3.128,1.362,8.479,8.479,0,0,1-1.345.2Z" transform="translate(-278.552 -107.225)" fill="#fff"/>
              <path id="Path_9668" data-name="Path 9668" d="M571.05,369.382a.78.78,0,0,1-.056-.072q-1.035-1.762-2.068-3.524a.293.293,0,0,0-.276-.155h-4.233a.577.577,0,0,1,.033-.1l1.783-3.027c.1-.173.2-.346.3-.52a.216.216,0,0,1,.216-.118h4.162a.221.221,0,0,1,.216.118q1.042,1.77,2.086,3.538a.216.216,0,0,1-.015.242q-.747,1.262-1.491,2.525l-.6,1.019A.347.347,0,0,0,571.05,369.382Z" transform="translate(-555.768 -354.326)" fill="#fff"/>
              <path id="Path_9669" data-name="Path 9669" d="M662.3,130.287l-.716-.7a.1.1,0,0,1-.005-.138,2.157,2.157,0,0,1,1.309-1.011,2.381,2.381,0,0,1,2.145.359,1.38,1.38,0,0,1,.575,1.128,1.556,1.556,0,0,1-.423,1.165,3,3,0,0,1-.782.573c-.334.178-.672.35-1,.539a.971.971,0,0,0-.466.565c-.036.108-.01.147.108.147h2.427c.079,0,.108.029.108.108v.881c0,.062-.034.085-.091.091h-3.836c-.095,0-.118-.015-.119-.088a3.657,3.657,0,0,1,.232-1.408,2.552,2.552,0,0,1,.909-1.1,7.383,7.383,0,0,1,1.044-.591,2.416,2.416,0,0,0,.442-.284.594.594,0,0,0-.279-1.079,1.354,1.354,0,0,0-1.446.628C662.395,130.132,662.353,130.208,662.3,130.287Z" transform="translate(-649.952 -127.703)" fill="#fff"/>
            </g>
          </g>
          <path id="Path_9670" data-name="Path 9670" d="M5.463,2.858l.53,1.278,1.384.1a.564.564,0,0,1,.49.384.546.546,0,0,1-.174.59L6.634,6.1l.33,1.338a.552.552,0,0,1-.209.59.566.566,0,0,1-.632.024L4.941,7.325l-1.187.711a.57.57,0,0,1-.622-.02.558.558,0,0,1-.216-.59l.33-1.338L2.187,5.2A.549.549,0,0,1,2,4.612a.558.558,0,0,1,.513-.381L3.9,4.136l.525-1.272a.561.561,0,0,1,1.036,0Z" transform="translate(9.678 86.952)" fill="#f5fafe"/>
          <path id="Path_9671" data-name="Path 9671" d="M5.463,2.858l.53,1.278,1.384.1a.564.564,0,0,1,.49.384.546.546,0,0,1-.174.59L6.634,6.1l.33,1.338a.552.552,0,0,1-.209.59.566.566,0,0,1-.632.024L4.941,7.325l-1.187.711a.57.57,0,0,1-.622-.02.558.558,0,0,1-.216-.59l.33-1.338L2.187,5.2A.549.549,0,0,1,2,4.612a.558.558,0,0,1,.513-.381L3.9,4.136l.525-1.272a.561.561,0,0,1,1.036,0Z" transform="translate(103.171 86.952)" fill="#f5fafe"/>
          <path id="Path_9672" data-name="Path 9672" d="M5.463,2.858l.53,1.278,1.384.1a.564.564,0,0,1,.49.384.546.546,0,0,1-.174.59L6.634,6.1l.33,1.338a.552.552,0,0,1-.209.59.566.566,0,0,1-.632.024L4.941,7.325l-1.187.711a.57.57,0,0,1-.622-.02.558.558,0,0,1-.216-.59l.33-1.338L2.187,5.2A.549.549,0,0,1,2,4.612a.558.558,0,0,1,.513-.381L3.9,4.136l.525-1.272a.561.561,0,0,1,1.036,0Z" transform="translate(56.887 128.885)" fill="#252e48"/>
          <path id="Path_9673" data-name="Path 9673" d="M5.337.448H6.51L3.779-5.593h-1.1L-.04.448H1.116l.6-1.4H4.732ZM2.092-1.831,3.222-4.471,4.361-1.831ZM13.889.448,13.88-5.593h-.923l-2.356,4-2.4-4H7.278V.448h1.07V-3.5L10.333-.243h.5l1.985-3.314.009,4Zm4.453.086a3.089,3.089,0,0,0,2.3-.85A3.089,3.089,0,0,0,21.6-2.573a3.089,3.089,0,0,0-.955-2.256,3.089,3.089,0,0,0-2.3-.85,3.094,3.094,0,0,0-2.3.852,3.094,3.094,0,0,0-.957,2.255,3.094,3.094,0,0,0,.957,2.255,3.094,3.094,0,0,0,2.3.852Zm0-.984a2.058,2.058,0,0,1-1.521-.6,2.058,2.058,0,0,1-.6-1.521,2.058,2.058,0,0,1,.6-1.521,2.058,2.058,0,0,1,1.521-.6,2.058,2.058,0,0,1,1.521.6,2.058,2.058,0,0,1,.6,1.521,2.058,2.058,0,0,1-.6,1.521,2.058,2.058,0,0,1-1.521.6Zm8.7-5.144V-1.5L23.71-5.593h-.923V.448H23.9V-3.643L27.231.448h.928V-5.593ZM33.9-.76A2.44,2.44,0,0,1,32.66-.45a2.079,2.079,0,0,1-1.554-.586,2.079,2.079,0,0,1-.629-1.537A2.067,2.067,0,0,1,31.1-4.117,2.067,2.067,0,0,1,32.668-4.7a2.242,2.242,0,0,1,1.666.69l.708-.69a3.121,3.121,0,0,0-2.425-.984,3.089,3.089,0,0,0-2.309.844,3.089,3.089,0,0,0-.961,2.263A3.083,3.083,0,0,0,30.3-.314a3.083,3.083,0,0,0,2.3.849,3.825,3.825,0,0,0,2.365-.768V-2.642H33.9Z" transform="translate(44.226 50.29)" fill="#2b3453"/>
          <line id="Line_150" data-name="Line 150" x2="8.068" transform="translate(88.482 47.338)" fill="none" stroke="#252d48" stroke-width="1"/>
          <line id="Line_151" data-name="Line 151" x2="8.068" transform="translate(25.913 47.338)" fill="none" stroke="#252d48" stroke-width="1"/>
          <g id="Group_9387" data-name="Group 9387" transform="translate(25.89 83.095)">
            <path id="Path_9674" data-name="Path 9674" d="M-20.623,2.761c2.158,0,3.178-1.079,3.178-2.336,0-2.886-4.66-1.8-4.66-3.47,0-.6.494-1.067,1.707-1.067a4.368,4.368,0,0,1,2.167.618l.461-1.134a4.97,4.97,0,0,0-2.616-.7c-2.158,0-3.166,1.079-3.166,2.347,0,2.919,4.671,1.808,4.671,3.5,0,.584-.517,1.022-1.74,1.022A4.355,4.355,0,0,1-23.211.686l-.511,1.136a5.07,5.07,0,0,0,3.1.939Zm8.995,0a4.018,4.018,0,0,0,2.99-1.107A4.018,4.018,0,0,0-7.395-1.282,4.018,4.018,0,0,0-8.638-4.218a4.018,4.018,0,0,0-2.99-1.106,4.025,4.025,0,0,0-2.988,1.109,4.025,4.025,0,0,0-1.245,2.934,4.025,4.025,0,0,0,1.244,2.934,4.025,4.025,0,0,0,2.988,1.109Zm0-1.281A2.679,2.679,0,0,1-13.607.7a2.679,2.679,0,0,1-.783-1.98,2.679,2.679,0,0,1,.783-1.98,2.679,2.679,0,0,1,1.98-.783,2.679,2.679,0,0,1,1.979.784,2.679,2.679,0,0,1,.783,1.979A2.679,2.679,0,0,1-9.649.7a2.679,2.679,0,0,1-1.98.783ZM.589-3.988V-5.212H-5.149V2.649h1.46V-.361h3.8V-1.6h-3.8V-3.988ZM4.35,2.649H5.81V-3.977H8.416V-5.212H1.746v1.235h2.6ZM20.2-5.212,18.186.8,16.2-5.212H14.851L12.818.762,10.865-5.212H9.348l2.605,7.861h1.566L15.5-3.168l1.942,5.817h1.55l2.6-7.861Zm8.916,7.861h1.528L27.09-5.212H25.653L22.116,2.649h1.5L24.4.829h3.93ZM24.89-.316l1.467-3.437L27.843-.316ZM39.05,2.649,37.243.066a2.514,2.514,0,0,0,1.673-2.481c0-1.74-1.28-2.8-3.344-2.8H32.335v7.86h1.46V.357h1.775a2.737,2.737,0,0,0,.3-.011l1.606,2.3ZM37.444-2.416c0,.988-.662,1.572-1.942,1.572H33.795V-3.973H35.5C36.782-3.977,37.444-3.4,37.444-2.416ZM42.7,1.424V-.743h3.8v-1.2H42.7V-3.988h4.278V-5.212H41.244V2.649h5.9V1.424Z" transform="translate(23.722 5.33)" fill="#fff"/>
            <path id="Path_9675" data-name="Path 9675" d="M-21.5,2.2A3.711,3.711,0,0,0-18.6.974l-.877-.836A2.542,2.542,0,0,1-21.426,1,2.5,2.5,0,0,1-23.294.286a2.5,2.5,0,0,1-.744-1.855,2.5,2.5,0,0,1,.744-1.855,2.5,2.5,0,0,1,1.867-.714,2.567,2.567,0,0,1,1.954.857l.877-.825A3.7,3.7,0,0,0-21.489-5.33,3.726,3.726,0,0,0-24.261-4.3a3.726,3.726,0,0,0-1.145,2.727,3.723,3.723,0,0,0,1.139,2.727A3.723,3.723,0,0,0-21.5,2.2Zm8.116,0A3.738,3.738,0,0,0-10.6,1.166,3.738,3.738,0,0,0-9.447-1.565,3.738,3.738,0,0,0-10.6-4.3a3.738,3.738,0,0,0-2.781-1.029,3.743,3.743,0,0,0-2.78,1.031,3.743,3.743,0,0,0-1.158,2.729,3.743,3.743,0,0,0,1.158,2.729A3.743,3.743,0,0,0-13.384,2.2Zm0-1.187A2.492,2.492,0,0,1-15.225.281a2.492,2.492,0,0,1-.729-1.841A2.492,2.492,0,0,1-15.225-3.4a2.492,2.492,0,0,1,1.841-.729,2.492,2.492,0,0,1,1.84.728,2.492,2.492,0,0,1,.73,1.839,2.492,2.492,0,0,1-.729,1.84A2.492,2.492,0,0,1-13.384,1ZM.64,2.1.629-5.216H-.48L-3.336-.374l-2.9-4.846H-7.357V2.091h1.295V-2.692l2.4,3.948h.606l2.4-4.011.011,4.847ZM6.273-5.22H3.265V2.091H4.623V-.018H6.273c1.922,0,3.112-.992,3.112-2.6S8.195-5.22,6.273-5.22ZM6.209-1.168H4.623v-2.9H6.209c1.187,0,1.807.533,1.807,1.452S7.4-1.168,6.209-1.168ZM16.5,2.091h1.421L14.623-5.22H13.281L9.992,2.091h1.395L12.112.4h3.656ZM12.573-.666l1.368-3.2,1.379,3.2ZM24.646-5.22v4.95L20.613-5.22H19.5V2.091h1.347v-4.95l4.028,4.95h1.122V-5.22ZM28.6,2.092h1.358V-5.22H28.6ZM33.942.953V-1.063h3.53V-2.181h-3.53v-1.9h3.983V-5.22H32.583V2.091h5.483V.953ZM42.5,2.2c2.005,0,2.956-1,2.956-2.173,0-2.684-4.335-1.671-4.335-3.228,0-.553.46-.992,1.588-.992a4.063,4.063,0,0,1,2.016.575l.432-1.055a4.622,4.622,0,0,0-2.434-.647c-2.005,0-2.945,1-2.945,2.183,0,2.715,4.345,1.682,4.345,3.259,0,.539-.48.95-1.618.95a4.051,4.051,0,0,1-2.42-.8l-.47,1.055A4.711,4.711,0,0,0,42.5,2.2Z" transform="translate(25.406 17.088)" fill="#fff"/>
          </g>
        </g>
      </g>
    </g>
  </g>
</svg>
