<?xml version="1.0" encoding="UTF-8"?>
<!DOCTYPE svg PUBLIC "-//W3C//DTD SVG 1.1//EN" "http://www.w3.org/Graphics/SVG/1.1/DTD/svg11.dtd">
<!-- Creator: CorelDRAW X8 -->
<svg xmlns="http://www.w3.org/2000/svg" xml:space="preserve" width="3.5719cm" height="4.3127cm" version="1.1" style="shape-rendering:geometricPrecision; text-rendering:geometricPrecision; image-rendering:optimizeQuality; fill-rule:evenodd; clip-rule:evenodd"
viewBox="0 0 3572 4313"
 xmlns:xlink="http://www.w3.org/1999/xlink">
 <defs>
  <style type="text/css">
   <![CDATA[
    .fil3 {fill:none}
    .fil0 {fill:#FEFEFE}
    .fil6 {fill:#994059}
    .fil1 {fill:#E9F1FF}
    .fil5 {fill:#FEFEFE;fill-rule:nonzero}
    .fil8 {fill:#332C2B;fill-rule:nonzero}
    .fil7 {fill:#252E48;fill-rule:nonzero}
    .fil2 {fill:url(#id3)}
    .fil4 {fill:url(#id4)}
   ]]>
  </style>
   <clipPath id="id0">
    <path d="M4 0l3572 0 0 4313 -3572 0 0 -4313z"/>
   </clipPath>
     <clipPath id="id1">
      <path d="M1785 4087l-1358 -683 0 -3178 2732 0 0 3178 -1374 683z"/>
     </clipPath>
     <clipPath id="id2">
      <path d="M4 0l3572 0 0 4313 -3572 0 0 -4313z"/>
     </clipPath>
  <linearGradient id="id3" gradientUnits="userSpaceOnUse" x1="1786.95" y1="1239.77" x2="1786.95" y2="221.35">
   <stop offset="0" style="stop-opacity:1; stop-color:#E36013"/>
   <stop offset="0.137255" style="stop-opacity:1; stop-color:#E78339"/>
   <stop offset="0.431373" style="stop-opacity:1; stop-color:#F08519"/>
   <stop offset="1" style="stop-opacity:1; stop-color:#ECA65F"/>
  </linearGradient>
  <linearGradient id="id4" gradientUnits="userSpaceOnUse" x1="1789.62" y1="3174.45" x2="1789.62" y2="2248.06">
   <stop offset="0" style="stop-opacity:1; stop-color:#E36013"/>
   <stop offset="0.6" style="stop-opacity:1; stop-color:#F08519"/>
   <stop offset="1" style="stop-opacity:1; stop-color:#F5A85C"/>
  </linearGradient>
 </defs>
 <g id="Layer_x0020_1">
  <metadata id="CorelCorpID_0Corel-Layer"/>
  <g>
  </g>
  <g style="clip-path:url(#id0)">
   <g>
    <g id="_1354258951312">
     <polygon class="fil0" points="1784,4313 267,3550 267,0 3319,0 3319,3550 "/>
     <polygon class="fil1" points="1785,4087 427,3404 427,226 3159,226 3159,3404 "/>
    </g>
    <g style="clip-path:url(#id1)">
     <g>
      <g>
       <polygon id="1" class="fil2" points="1266,221 2308,221 2308,980 1760,1240 1274,983 "/>
       <g>
        <path class="fil0" d="M1916 922c-109,45 -229,22 -313,-48 27,-36 38,-86 124,-65 110,27 218,-7 285,-100 34,-51 49,-96 51,-152 0,-9 0,-19 0,-29 0,-11 14,-15 18,-5 0,2 1,4 2,5 4,11 8,23 9,28 13,45 15,93 7,139 -19,102 -88,186 -183,227z"/>
        <path class="fil0" d="M1851 512c-2,-2 -2,-4 0,-5 1,-1 3,-1 5,0 5,6 15,25 21,43 4,14 7,28 5,37 -1,2 -2,3 -4,3 -2,-1 -3,-3 -3,-5 2,-7 0,-20 -5,-33 -6,-18 -14,-35 -19,-40zm130 -46c0,1 0,2 1,2l0 1c0,0 0,1 0,2l1 0c0,0 0,1 0,2l1 0c0,0 0,1 0,2l0 0c1,1 1,1 1,2l0 0c1,1 1,1 1,2l0 0c1,1 1,2 1,2l0 0c0,1 1,2 1,2l0 1c0,0 0,1 1,1l0 1c0,0 0,1 0,2l1 0c0,1 0,1 0,2l0 0c0,1 1,1 1,2l0 0c0,1 0,1 1,2l0 0c0,1 0,1 0,2l0 0c1,1 1,2 1,2l0 1c0,0 0,1 1,1l0 1c0,0 0,1 0,1l0 1c0,0 1,1 1,2l0 0c0,0 0,1 0,2l0 0c1,1 1,1 1,2l0 0c0,1 0,1 0,2l0 0c1,1 1,1 1,2l0 0c0,1 0,2 0,2l0 0c0,1 1,2 1,2l0 0c0,1 0,2 0,2l0 1c0,0 0,1 1,1l0 1c0,0 0,1 0,1l0 1c0,0 0,1 0,2l0 0c0,0 0,1 1,2 3,24 2,48 -4,70 -10,45 -38,85 -76,116 -46,38 -87,43 -119,48l0 0 0 0c-19,3 -35,6 -48,16 -12,9 -20,20 -25,30 -13,24 -2,80 -2,80 -30,-47 -43,-136 -17,-188 2,-4 6,-8 8,-12 9,-19 22,-32 35,-41 3,-1 6,-1 10,-2 1,0 2,0 3,0 -3,0 -6,-1 -8,-2 1,0 2,-1 3,-1l-6 1c-34,-10 -39,-25 -39,-25 0,-2 1,-4 2,-5 2,0 4,1 4,3 0,0 6,18 62,25 21,3 45,2 68,0 13,-4 25,-11 35,-23 -5,3 -10,5 -14,6 -5,1 -10,1 -15,-1 -8,-3 -14,-11 -16,-23 -2,-17 -7,-43 -7,-43 0,-2 1,-4 3,-4 1,0 3,1 4,2 0,1 5,27 7,44 1,10 6,16 12,18 3,1 6,1 10,0 4,0 8,-2 12,-5 10,-7 18,-19 20,-36l1 -1 0 0 0 0 0 -1 0 -1 0 -1 0 0 0 -1 0 0 0 -1 0 -1 0 -1 0 0 0 0 0 0 0 -1 0 0c0,-1 0,-1 0,-1l0 -1 0 0c0,0 0,0 0,-1l0 0 0 0c0,0 0,-1 0,-1l0 0 0 0c0,-1 0,-1 0,-2l0 0c0,0 0,0 0,-1l0 0 0 0c0,0 0,-1 0,-1 -3,-30 -19,-55 -43,-68 -2,0 -4,0 -7,0 -9,0 -17,1 -24,3 -7,2 -14,5 -19,9 4,3 8,6 12,10 5,6 9,11 11,18 1,1 1,3 -1,4 -2,1 -4,0 -5,-1 -2,-6 -6,-11 -10,-16 -4,-4 -8,-8 -13,-11 -25,21 -31,50 -31,50 0,1 -2,3 -3,2 -2,0 -3,-2 -3,-4 0,0 6,-32 35,-55 0,0 0,0 1,0 0,-1 1,-1 1,-2 7,-4 14,-8 23,-11 7,-2 14,-3 23,-3 -10,-8 -21,-14 -32,-18 -10,0 -20,1 -29,3 -19,6 -35,20 -46,48 0,1 -2,2 -4,2 -2,-1 -3,-3 -2,-5 12,-30 29,-45 50,-51 4,-1 7,-2 11,-2 -17,-3 -36,-3 -54,0l-2 1c-16,11 -34,33 -42,60 -6,20 -6,42 5,65 0,2 0,4 -2,5 -2,0 -4,0 -4,-2 -12,-25 -12,-49 -6,-70 7,-23 22,-43 36,-56 -14,4 -28,9 -42,16 -9,13 -14,25 -18,37 -5,17 -6,32 -7,44 -1,15 -4,24 -11,30 -7,6 -17,9 -31,12 0,0 0,0 0,0 0,7 2,13 4,18 4,8 10,14 19,18 5,2 11,4 18,4 2,-6 5,-12 8,-18 0,-2 2,-3 4,-2 2,1 2,3 2,4 -5,11 -8,20 -11,29l-9 6 0 0 1 0c1,-4 2,-8 3,-12 -7,-1 -13,-3 -19,-5 -10,-4 -17,-12 -22,-21 -4,-8 -5,-19 -5,-30 1,-15 5,-30 12,-45 0,-2 2,-3 4,-2 2,1 3,3 2,4 -6,15 -11,30 -11,43 0,1 0,1 0,2 12,-3 21,-5 27,-10 5,-5 8,-12 9,-25 0,-13 2,-28 7,-46 3,-9 7,-19 13,-30 -27,16 -51,36 -66,60 -79,88 -90,216 -29,309 -26,-27 -48,-60 -64,-97 -24,-59 -30,-115 -21,-167l0 0c0,-4 1,-8 2,-12l0 -1c0,-1 1,-2 1,-4l0 0c48,-212 337,-323 461,-142l0 0c1,1 2,2 3,4 0,1 1,2 2,3 1,2 3,4 4,7 0,0 1,1 1,2 2,3 3,6 5,9l0 0c2,3 4,7 6,10zm-253 75c0,-2 2,-3 4,-3 2,1 3,2 3,4 -1,4 -1,7 -1,10 1,13 7,25 16,34 10,9 22,15 35,18 5,0 9,1 13,0 2,0 4,2 4,4 0,1 -2,3 -4,3 -4,0 -9,0 -14,-1 -14,-2 -28,-9 -38,-19 -11,-10 -18,-24 -19,-39 0,-3 0,-7 1,-11z"/>
        <path class="fil0" d="M1726 888c12,30 37,54 69,57 -78,-1 -152,-32 -207,-85 -4,-4 -8,-7 -11,-11l0 0c1,2 3,3 4,5 -61,-93 -50,-221 29,-309 -17,28 -23,60 -9,93 11,28 33,34 54,25l0 -1 0 0 9 -6c-1,2 -1,5 -2,8 -2,8 -7,31 -2,37 6,6 12,-1 27,-16 13,-14 34,-33 65,-38 -13,9 -26,22 -35,41 -2,4 -6,8 -8,12 -26,52 -13,141 17,188l0 0zm28 -245l6 -1c-1,0 -2,1 -3,1 -1,0 -2,0 -3,0zm315 -171c2,5 5,10 9,14 3,3 6,6 7,8 1,3 -12,-3 -14,-3 -6,-2 -12,-3 -16,1 -1,1 -1,2 -2,3 -1,2 -5,10 -7,9 -3,-1 -5,-10 -5,-12 -3,-8 -7,-13 -15,-18 -2,-1 -5,-3 -8,-4 -2,0 -9,-3 -7,-6 2,-1 8,-2 11,-4 4,-2 6,-5 7,-10 0,-4 -3,-13 -2,-16 1,-2 7,5 8,6 6,6 10,9 14,10 5,2 9,2 15,1 1,0 9,-2 9,2 -1,2 -3,7 -4,10 -1,3 -1,6 0,9z"/>
       </g>
      </g>
     </g>
    </g>
    <g style="clip-path:url(#id2)">
     <polygon class="fil3" points="1785,4087 427,3404 427,226 3159,226 3159,3404 "/>
     <rect class="fil4" x="49" y="2248" width="3481" height="926"/>
     <path class="fil5" d="M243 2702l15 -46c34,12 59,23 74,32 -4,-39 -6,-66 -6,-81l47 0c-1,22 -3,48 -8,80 23,-11 48,-21 77,-31l15 46c-28,9 -55,15 -81,18 13,12 32,32 56,61l-39 28c-13,-17 -27,-40 -44,-70 -16,31 -30,54 -43,70l-38 -28c25,-30 43,-51 54,-61 -28,-5 -54,-11 -79,-18z"/>
     <path class="fil5" d="M3147 2702l15 -46c35,12 59,23 75,32 -4,-39 -6,-66 -7,-81l48 0c-1,22 -4,48 -8,80 22,-11 48,-21 76,-31l15 46c-27,9 -54,15 -80,18 13,12 31,32 55,61l-38 28c-13,-17 -28,-40 -45,-70 -16,31 -30,54 -42,70l-38 -28c25,-30 43,-51 54,-61 -28,-5 -55,-11 -80,-18z"/>
     <polygon class="fil5" points="614,2541 614,2523 737,2523 737,2541 685,2541 685,2688 667,2688 667,2541 "/>
     <path id="1" class="fil5" d="M825 2541l-52 0 0 65 52 0c14,0 23,-1 27,-5 5,-3 7,-9 7,-18l0 -19c0,-9 -2,-15 -6,-18 -5,-4 -14,-5 -28,-5zm-70 147l0 -165 74 0c19,0 31,3 38,8 7,6 11,16 11,30l0 25c0,8 -2,15 -6,20 -3,5 -8,8 -16,9 8,2 14,5 17,10 3,5 5,13 5,23l0 40 -19 0 0 -34c0,-12 -2,-20 -6,-24 -4,-4 -11,-6 -22,-6l-58 0 0 64 -18 0z"/>
     <polygon id="2" class="fil5" points="969,2688 951,2688 951,2615 883,2523 905,2523 960,2600 1016,2523 1037,2523 969,2615 "/>
     <path id="3" class="fil5" d="M1117 2538l-10 0c-12,0 -20,1 -25,2 -4,2 -8,4 -12,7 -3,2 -5,6 -7,11 -1,5 -2,13 -2,24l0 47c0,11 1,19 2,24 2,5 4,9 7,11 4,3 8,5 12,7 5,1 13,2 25,2l10 0c12,0 20,-1 25,-2 5,-2 9,-4 12,-7 3,-2 6,-6 7,-11 1,-4 2,-12 2,-24l0 -47c0,-11 -1,-20 -2,-24 -2,-5 -4,-9 -7,-12 -3,-3 -8,-5 -12,-6 -5,-1 -13,-2 -25,-2zm-75 40c0,-21 5,-36 13,-44 9,-9 25,-13 47,-13l20 0c23,0 38,4 47,12 8,9 13,23 13,45l0 55c0,21 -5,36 -13,44 -9,9 -24,13 -47,13l-20 0c-22,0 -38,-4 -47,-13 -8,-8 -13,-23 -13,-44l0 -55z"/>
     <path id="4" class="fil5" d="M1215 2523l18 0 0 108c0,11 1,18 2,22 1,5 3,8 6,11 2,2 6,4 10,5 4,1 11,2 21,2l18 0c10,0 17,-1 21,-2 4,-1 7,-3 10,-5 3,-3 5,-6 6,-11 1,-4 2,-11 2,-22l0 -108 18 0 0 110c0,21 -4,36 -12,44 -9,9 -23,13 -44,13l-20 0c-21,0 -36,-4 -44,-13 -8,-8 -12,-23 -12,-44l0 -110z"/>
     <polygon id="5" class="fil5" points="1363,2541 1363,2523 1486,2523 1486,2541 1434,2541 1434,2688 1415,2688 1415,2541 "/>
     <path id="6" class="fil5" d="M1603 2629l71 0 -33 -88 -6 0 -32 88zm-41 59l61 -165 30 0 61 165 -19 0 -15 -42 -83 0 -16 42 -19 0z"/>
     <polygon id="7" class="fil5" points="1736,2688 1736,2523 1754,2523 1754,2593 1768,2593 1835,2523 1859,2523 1783,2602 1869,2688 1844,2688 1768,2611 1754,2611 1754,2688 "/>
     <polygon id="8" class="fil5" points="1888,2688 1888,2523 1918,2523 1974,2670 2030,2523 2060,2523 2060,2688 2042,2688 2042,2539 1985,2688 1963,2688 1906,2539 1906,2688 "/>
     <path id="9" class="fil5" d="M2275 2655l-61 -51c-10,0 -17,3 -21,7 -4,5 -6,14 -6,27 0,9 1,16 2,20 1,3 2,6 5,8 2,3 6,4 12,5 6,1 16,2 30,2 12,0 21,-2 27,-5 6,-2 10,-7 12,-13zm15 12c-4,9 -10,15 -19,18 -8,3 -23,5 -45,5 -15,0 -26,-1 -32,-3 -7,-2 -13,-6 -17,-11 -3,-3 -5,-8 -6,-14 -2,-7 -2,-15 -2,-26 0,-14 2,-24 6,-31 5,-7 13,-11 23,-13 -5,-4 -9,-9 -11,-14 -3,-6 -4,-13 -4,-21 0,-14 4,-23 10,-28 7,-5 20,-8 39,-8 18,0 31,3 38,9 8,5 12,14 12,27l0 14 -18 0 0 -13c0,-8 -2,-13 -5,-16 -4,-2 -13,-4 -27,-4 -14,0 -22,2 -25,4 -3,2 -5,7 -5,15 0,10 5,20 15,28l2 1 59 50 0 -23 18 0 0 24c0,2 0,4 0,6 0,2 -1,4 -1,7l31 26 -11 13 -25 -22z"/>
     <path id="10" class="fil5" d="M2415 2523l19 0 0 108c0,11 0,18 1,22 1,5 3,8 6,11 3,2 7,4 11,5 4,1 11,2 21,2l17 0c10,0 17,-1 22,-2 4,-1 7,-3 10,-5 3,-3 5,-6 6,-11 1,-4 2,-11 2,-22l0 -108 18 0 0 110c0,21 -4,36 -13,44 -8,9 -22,13 -43,13l-20 0c-21,0 -36,-4 -44,-13 -9,-8 -13,-23 -13,-44l0 -110z"/>
     <polygon id="11" class="fil5" points="2564,2541 2564,2523 2687,2523 2687,2541 2634,2541 2634,2688 2616,2688 2616,2541 "/>
     <path id="12" class="fil5" d="M2722 2594l60 0c9,0 16,-1 19,-5 3,-3 5,-11 5,-23 0,-11 -2,-18 -5,-21 -4,-3 -13,-4 -27,-4l-52 0 0 53zm0 76l60 0c11,0 19,-1 22,-5 4,-3 6,-12 6,-26 0,-12 -2,-19 -6,-23 -4,-3 -15,-5 -33,-5l-49 0 0 59zm-17 18l0 -165 76 0c18,0 29,3 35,8 6,6 9,17 9,33 0,13 -2,22 -4,27 -3,5 -8,9 -15,11 8,2 14,6 18,11 3,6 5,15 5,29 0,18 -4,30 -11,36 -7,7 -21,10 -43,10l-70 0z"/>
     <polygon id="13" class="fil5" points="2863,2688 2863,2523 2881,2523 2881,2593 2895,2593 2962,2523 2986,2523 2910,2602 2995,2688 2970,2688 2895,2611 2881,2611 2881,2688 "/>
     <polygon id="14" class="fil5" points="718,2935 718,2770 746,2770 835,2917 835,2770 853,2770 853,2935 825,2935 736,2788 736,2935 "/>
     <path id="15" class="fil5" d="M962 2785l-10 0c-12,0 -20,1 -24,2 -5,2 -9,4 -13,7 -3,2 -5,6 -7,11 -1,5 -2,13 -2,24l0 47c0,11 1,20 2,24 2,5 4,9 7,11 4,3 8,5 13,7 4,1 12,2 24,2l10 0c12,0 20,-1 25,-2 5,-2 9,-4 12,-7 3,-2 6,-6 7,-11 1,-4 2,-12 2,-24l0 -47c0,-11 -1,-20 -2,-24 -1,-5 -4,-9 -7,-12 -3,-2 -7,-4 -12,-6 -5,-1 -13,-2 -25,-2zm-74 40c0,-21 4,-36 13,-44 8,-9 24,-13 46,-13l21 0c22,0 37,4 46,13 9,8 13,22 13,44l0 55c0,22 -4,36 -13,44 -9,9 -24,13 -46,13l-21 0c-22,0 -38,-4 -46,-13 -9,-8 -13,-22 -13,-44l0 -55z"/>
     <polygon id="16" class="fil5" points="1051,2935 1051,2911 1070,2911 1070,2935 "/>
     <polygon id="17" class="fil5" points="1194,2935 1194,2787 1155,2826 1144,2814 1188,2770 1211,2770 1211,2935 "/>
     <path id="18" class="fil5" d="M1362 2935l0 -165 79 0c21,0 35,4 44,13 8,8 12,22 12,42l0 54c0,21 -4,35 -12,43 -9,9 -23,13 -44,13l-79 0zm18 -17l58 0c16,0 27,-2 32,-8 6,-5 8,-15 8,-30l0 -53c0,-16 -2,-27 -8,-32 -5,-6 -16,-8 -32,-8l-58 0 0 131z"/>
     <polygon id="19" class="fil5" points="1532,2935 1532,2770 1550,2770 1550,2935 "/>
     <polygon id="20" class="fil5" points="1666,2935 1666,2770 1684,2770 1684,2935 "/>
     <polygon id="21" class="fil5" points="1724,2935 1724,2770 1752,2770 1841,2917 1841,2770 1860,2770 1860,2935 1831,2935 1742,2788 1742,2935 "/>
     <path id="22" class="fil5" d="M1900 2935l0 -165 79 0c21,0 35,4 43,13 9,8 13,22 13,42l0 54c0,21 -4,35 -13,43 -8,9 -23,13 -43,13l-79 0zm18 -17l58 0c16,0 26,-2 32,-8 5,-5 8,-15 8,-30l0 -53c0,-16 -3,-27 -8,-32 -6,-6 -16,-8 -32,-8l-58 0 0 131z"/>
     <path id="23" class="fil5" d="M2139 2785l-11 0c-11,0 -19,1 -24,2 -5,2 -9,4 -12,7 -4,2 -6,6 -7,11 -2,5 -2,13 -2,24l0 47c0,11 0,20 2,24 1,5 3,9 7,11 3,3 7,5 12,7 5,1 13,2 24,2l11 0c11,0 19,-1 24,-2 5,-2 9,-4 13,-7 3,-2 5,-6 6,-11 2,-4 2,-12 2,-24l0 -47c0,-11 0,-20 -2,-24 -1,-5 -3,-9 -7,-12 -3,-2 -7,-4 -12,-6 -5,-1 -13,-2 -24,-2zm-75 40c0,-21 4,-36 13,-44 9,-9 24,-13 46,-13l21 0c22,0 38,4 46,13 9,8 13,22 13,44l0 55c0,22 -4,36 -13,44 -8,9 -24,13 -46,13l-21 0c-22,0 -37,-4 -46,-13 -9,-8 -13,-22 -13,-44l0 -55z"/>
     <polygon id="24" class="fil5" points="2238,2935 2238,2770 2266,2770 2355,2917 2355,2770 2373,2770 2373,2935 2345,2935 2256,2788 2256,2935 "/>
     <polygon id="25" class="fil5" points="2413,2935 2413,2770 2528,2770 2528,2788 2431,2788 2431,2842 2526,2842 2526,2858 2431,2858 2431,2918 2528,2918 2528,2935 "/>
     <path id="26" class="fil5" d="M2553 2881l18 0 0 3c0,10 1,17 3,22 1,5 3,8 7,10 2,1 7,2 12,3 6,1 17,1 34,1 10,0 17,-1 22,-2 5,-1 9,-3 11,-6 2,-1 3,-4 4,-7 0,-4 1,-9 1,-15 0,-12 -2,-20 -4,-23 -3,-3 -7,-5 -15,-5l-50 -4c-16,-1 -26,-5 -32,-12 -6,-6 -9,-17 -9,-32 0,-10 1,-17 3,-23 2,-6 5,-11 9,-15 4,-3 8,-5 14,-6 6,-1 17,-2 32,-2l6 0c17,0 29,1 35,3 7,1 13,4 18,8 3,3 5,7 7,11 1,5 2,11 2,19 0,2 0,4 0,5 0,1 0,2 0,3l-19 0 0 -4c0,-6 0,-11 -1,-14 0,-3 -1,-6 -3,-7 -2,-3 -6,-4 -12,-5 -6,-1 -17,-2 -33,-2 -17,0 -28,2 -32,6 -5,4 -7,12 -7,23 0,10 1,16 4,20 3,3 9,5 17,6l51 4c14,1 23,5 29,12 5,6 8,16 8,31 0,11 -1,19 -2,24 -1,6 -4,10 -7,14 -4,4 -9,8 -16,9 -7,2 -19,3 -37,3l-8 0c-15,0 -26,-1 -32,-2 -6,-2 -12,-5 -16,-8 -4,-4 -7,-9 -9,-15 -2,-6 -3,-13 -3,-23l0 -8z"/>
     <polygon id="27" class="fil5" points="2719,2935 2719,2770 2737,2770 2737,2935 "/>
     <path id="28" class="fil5" d="M2800 2876l71 0 -33 -88 -6 0 -32 88zm-41 59l61 -165 30 0 61 165 -19 0 -15 -42 -83 0 -16 42 -19 0z"/>
     <path class="fil6" d="M49 3174c36,0 71,0 107,0 35,0 71,0 106,0 0,28 0,55 0,83 0,27 0,54 0,82 0,0 0,0 0,0 0,0 0,0 0,0 -35,-28 -71,-55 -106,-82 -36,-28 -71,-55 -107,-83z"/>
     <path class="fil6" d="M3530 3174c-36,0 -71,0 -107,0 -35,0 -71,0 -106,0 0,28 0,55 0,83 0,27 0,54 0,82 0,0 0,0 0,0 0,0 0,0 0,0 35,-28 71,-55 106,-82 36,-28 71,-55 107,-83z"/>
     <polygon class="fil7" points="1071,1852 1149,1852 1149,2113 1223,2113 1223,1852 1300,1852 1300,1786 1071,1786 "/>
     <path id="1" class="fil7" d="M1366 1949c0,96 68,169 164,169 94,0 164,-73 164,-169 0,-95 -73,-169 -164,-169 -90,0 -164,74 -164,169zm80 0c0,-48 27,-97 84,-97 58,0 84,49 84,97 0,49 -25,97 -84,97 -61,0 -84,-48 -84,-97z"/>
     <path id="2" class="fil7" d="M1792 1786l0 327 75 0 0 -121 44 0c64,0 112,-38 112,-105 0,-68 -48,-101 -112,-101l-119 0zm75 146l0 -86 21 0c29,0 57,10 57,43 0,33 -28,43 -57,43l-21 0z"/>
     <polygon id="3" class="fil7" points="2121,1968 2121,2028 2249,2028 2249,1968 "/>
     <polygon id="4" class="fil7" points="2457,1920 2511,1885 2511,2113 2585,2113 2585,1786 2550,1786 2457,1846 "/>
     <polygon class="fil8" points="1143,3528 1143,3477 1243,3477 1243,3528 "/>
     <path id="1" class="fil8" d="M1538 3552l0 47 -179 0c2,-18 7,-35 17,-51 10,-16 29,-37 58,-64 23,-21 37,-36 42,-44 7,-10 10,-21 10,-31 0,-11 -3,-20 -9,-26 -6,-6 -14,-10 -25,-10 -11,0 -19,4 -25,10 -7,7 -10,17 -11,32l-51 -5c3,-28 12,-48 28,-61 16,-12 36,-18 60,-18 27,0 47,7 62,21 15,15 23,32 23,53 0,12 -2,24 -7,35 -4,11 -11,22 -20,34 -6,8 -17,19 -34,34 -16,15 -26,25 -30,30 -5,5 -8,9 -11,14l102 0z"/>
     <path id="2" class="fil8" d="M1659 3331c26,0 46,9 60,28 18,22 26,58 26,109 0,50 -8,87 -26,109 -14,18 -34,27 -60,27 -26,0 -47,-10 -63,-30 -16,-20 -24,-56 -24,-107 0,-50 9,-87 26,-109 15,-18 35,-27 61,-27zm0 42c-6,0 -12,2 -16,6 -5,4 -9,11 -12,22 -3,13 -5,35 -5,67 0,31 2,53 5,64 3,12 7,20 12,24 4,4 10,6 16,6 6,0 11,-2 16,-6 5,-4 9,-11 11,-22 4,-13 5,-35 5,-66 0,-32 -1,-53 -4,-65 -3,-12 -7,-20 -12,-24 -5,-4 -10,-6 -16,-6z"/>
     <path id="3" class="fil8" d="M1952 3552l0 47 -179 0c2,-18 8,-35 17,-51 10,-16 29,-37 58,-64 23,-21 37,-36 42,-44 7,-10 11,-21 11,-31 0,-11 -3,-20 -9,-26 -6,-6 -15,-10 -26,-10 -10,0 -19,4 -25,10 -6,7 -10,17 -11,32l-51 -5c3,-28 13,-48 29,-61 16,-12 36,-18 60,-18 26,0 47,7 62,21 15,15 22,32 22,53 0,12 -2,24 -6,35 -5,11 -11,22 -21,34 -6,8 -17,19 -33,34 -16,15 -27,25 -31,30 -4,5 -8,9 -10,14l101 0z"/>
     <path id="4" class="fil8" d="M2073 3331c26,0 46,9 61,28 17,22 26,58 26,109 0,50 -9,87 -26,109 -15,18 -35,27 -61,27 -26,0 -47,-10 -63,-30 -16,-20 -23,-56 -23,-107 0,-50 8,-87 26,-109 14,-18 34,-27 60,-27zm0 42c-6,0 -11,2 -16,6 -5,4 -9,11 -11,22 -4,13 -5,35 -5,67 0,31 1,53 4,64 3,12 7,20 12,24 5,4 10,6 16,6 6,0 12,-2 16,-6 5,-4 9,-11 12,-22 3,-13 5,-35 5,-66 0,-32 -2,-53 -5,-65 -3,-12 -7,-20 -12,-24 -4,-4 -10,-6 -16,-6z"/>
     <polygon id="5" class="fil8" points="2302,3528 2302,3477 2403,3477 2403,3528 "/>
     <path class="fil8" d="M1767 3978l-36 -28c12,-13 24,-26 36,-38 5,-5 8,-8 10,-9 -4,-1 -16,-3 -35,-8 -14,-3 -23,-6 -27,-7l15 -43c21,8 39,18 56,28 -4,-26 -6,-48 -6,-64l43 0c0,12 -3,33 -7,65 3,-1 10,-5 21,-10 14,-6 28,-12 40,-17l13 44c-18,4 -39,8 -62,12l29 33c5,7 10,12 13,16l-37 25 -32 -55c-10,18 -21,37 -34,56z"/>
    </g>
   </g>
  </g>
  <polygon class="fil3" points="4,0 3576,0 3576,4313 4,4313 "/>
 </g>
</svg>
