<svg xmlns="http://www.w3.org/2000/svg" xmlns:xlink="http://www.w3.org/1999/xlink" width="126.401" height="126.401" viewBox="0 0 126.401 126.401"><defs><style>.a{fill:#fff;}.b{filter:url(#a);}</style><filter id="a" x="0" y="0" width="126.401" height="126.401" filterUnits="userSpaceOnUse"><feOffset dy="3" input="SourceAlpha"/><feGaussianBlur stdDeviation="10" result="b"/><feFlood flood-color="#2051d8" flood-opacity="0.325"/><feComposite operator="in" in2="b"/><feComposite in="SourceGraphic"/></filter></defs><g class="b" transform="matrix(1, 0, 0, 1, 0, 0)"><path class="a" d="M33.2,66.4A33.209,33.209,0,0,1,20.278,2.609,33.209,33.209,0,0,1,46.124,63.792,32.992,32.992,0,0,1,33.2,66.4ZM28.478,23.435h0a2.7,2.7,0,0,0-2.7,2.711V42a2.7,2.7,0,0,0,4.058,2.367l13.537-7.928a2.722,2.722,0,0,0,0-4.734L29.838,23.8a2.7,2.7,0,0,0-1.361-.368Z" transform="translate(30 27)"/></g></svg>